<?xml version="1.0" encoding="utf-8"?>
<svg xmlns="http://www.w3.org/2000/svg" viewBox="0 0 500 500">
<style>
    .primary{fill:#6C63FF;}
    .secondary{fill:#3F3D56;}
    .accent{fill:#2F2E41;}
    .skin{fill:#FFB9B9;}
</style>
<path class="primary" d="M424.95,261.71c-.29-1.4-3.15-14.24-5.36-28.22-2.46-15.55-3.93-31.95-1.57-39.57,0,0-16.69-26.13-40.32-15.7,0,0,10.47,15.7,3.93,36.64-4.89,15.66-11.38,29.07-15.51,37.3a95.37,95.37,0,0,0-6.92,16.58c-3.11,9.42-5.25,19.34-4.87,29.45.66,17.45,7.77,34.83,21,46.42,14.45,12.62,34.86,16.86,53.06,12.76,18.75-4.22,34.67-17.12,42.91-34.61C478.91,301.1,475.25,277.41,424.95,261.71Z"/>
<path class="secondary" d="M401.45,261.71c-.29-1.4-3.15-14.24-5.36-28.22-2.46-15.55-3.93-31.95-1.57-39.57,0,0-16.69-26.13-40.32-15.7,0,0,10.47,15.7,3.93,36.64-4.89,15.66-11.38,29.07-15.51,37.3a95.37,95.37,0,0,0-6.92,16.58c-3.11,9.42-5.25,19.34-4.87,29.45.66,17.45,7.77,34.83,21,46.42,14.45,12.62,34.86,16.86,53.06,12.76,18.75-4.22,34.67-17.12,42.91-34.61C455.41,301.1,451.75,277.41,401.45,261.71Z"/>
<circle class="skin" cx="200" cy="150" r="40"/>
<circle class="skin" cx="350" cy="150" r="40"/>
<path class="accent" d="M160,190 v60 h80 v-60 Z"/>
<path class="accent" d="M310,190 v60 h80 v-60 Z"/>
<path class="primary" d="M180,250 h40 v100 h-40 Z"/>
<path class="primary" d="M330,250 h40 v100 h-40 Z"/>
<path class="secondary" d="M150,350 h300 v10 h-300 Z"/>
</svg>
